# xmcd
#
# Track frame offsets:
#	150
#	19625
#	38300
#	52552
#	68805
#	83532
#	101040
#	119595
#	135392
#	150935
#	168010
#	184327
#	215642
#
# Disc length: 2919 seconds
#
# Revision: 8
# Processed by: cddbd v1.5.2PL0 Copyright (c) Steve Scherf et al.
# Submitted via: EasyCDDAExtractor 15.3.0.1
#
DISCID=940b650d
DTITLE=Juanes - Mi Sangre
DYEAR=2004
DGENRE=Latin
TTITLE0=Amame
TTITLE1=Para Tu Amor
TTITLE2=Sueños
TTITLE3=La Camisa Negra
TTITLE4=Nada Valgo Sin Tu Amor
TTITLE5=No Siento Penas
TTITLE6=Damelo
TTITLE7=Lo Que Me Gusta A Mi
TTITLE8=Rosario Tijeras
TTITLE9=Que Pasa
TTITLE10=Volverte A Ver
TTITLE11=Tu Guardian
TTITLE12=Data
EXTD=
EXTT0=
EXTT1=
EXTT2=
EXTT3=
EXTT4=
EXTT5=
EXTT6=
EXTT7=
EXTT8=
EXTT9=
EXTT10=
EXTT11=
EXTT12=
PLAYORDER=
